# xmcd CD database file
#
# Track frame offsets:
#	150
#	13470
#	22895
#	35951
#	46405
#	56736
#	71030
#	81757
#	95504
#	113516
#	126875
#	140028
#	154552
#	166145
#	178479
#	193059
#	205368
#	218633
#	229009
#	239239
#
# Disc length: 3330 seconds
#
# Revision: 0
# Processed by: cddbd v1.5.2PL0 Copyright (c) Steve Scherf et al.
# Submitted via: CDex 1.51
#
DISCID=2b0d0014
DTITLE=Diverse Artiesten - Country Highlights - CD 1
DYEAR=2004
DGENRE=Country
TTITLE0=01. Tammy Wynette - D-I-V-O-R-C-E
TTITLE1=02. Merle Haggard - The Ballad Of Bonnie And Clyde
TTITLE2=03. Lynn Anderson - Rose Garden
TTITLE3=04. The Everly Brothers - All I Have To Do Is Dream
TTITLE4=05. Ferlin Husky - Wings Of A Dove
TTITLE5=06. Frankie Lane - Mule Train
TTITLE6=07. Hank Locklin - Please Help Me I'm Fallin'
TTITLE7=08. Lobo - Me And You And A Dog Named Boo
TTITLE8=09. Ricky Nelson - Garden Party
TTITLE9=10. Mickey Gilley - True Love Ways
TTITLE10=11. Conway Twitty - Danny Boy
TTITLE11=12. Eddie Rabbit - Drivin' My Life Away
TTITLE12=13. Don Gibson - Oh Lonesome Me
TTITLE13=14. Barbara Mandrell - Midnight Oil
TTITLE14=15. Jeannie C. Riley - Harper Valley P T A
TTITLE15=16. Johnny Cash - I Walk The Line
TTITLE16=17. Mickey Gilley - Room Full Of Roses
TTITLE17=18. Frankie Laine - Rawhide
TTITLE18=19. George Hamilton IV - Abilene
TTITLE19=20. Eddy Raven - I Got Mexico
EXTD=YEAR: 2004
EXTT0=
EXTT1=
EXTT2=
EXTT3=
EXTT4=
EXTT5=
EXTT6=
EXTT7=
EXTT8=
EXTT9=
EXTT10=
EXTT11=
EXTT12=
EXTT13=
EXTT14=
EXTT15=
EXTT16=
EXTT17=
EXTT18=
EXTT19=
PLAYORDER=
